<?xml version="1.0" encoding="UTF-8" standalone="no"?>
<!DOCTYPE svg PUBLIC "-//W3C//DTD SVG 1.1//EN"
 "http://www.w3.org/Graphics/SVG/1.1/DTD/svg11.dtd">
<!-- Generated by graphviz version 2.42.3 (20191010.1750)
 -->
<!-- Title: %3 Pages: 1 -->
<svg width="392pt" height="350pt"
 viewBox="0.00 0.00 188.00 168.00" xmlns="http://www.w3.org/2000/svg" xmlns:xlink="http://www.w3.org/1999/xlink">
<g id="graph0" class="graph" transform="scale(0.48 0.48) rotate(0) translate(4 164)">
<title>%3</title>
<polygon fill="white" stroke="transparent" points="-4,4 -4,-164 184,-164 184,4 -4,4"/>
<g id="clust1" class="cluster">
<title>cluster</title>
<polygon fill="none" stroke="black" points="8,-78 8,-152 172,-152 172,-78 8,-78"/>
<text text-anchor="middle" x="36.22" y="-136.8" font-family="Times,serif" font-size="14.00">Cluster</text>
</g>
<!-- nodeA -->
<g id="node1" class="node">
<title>nodeA</title>
<polygon fill="none" stroke="black" points="44,-8 44,-28 68,-28 68,-8 44,-8"/>
<text text-anchor="start" x="46.67" y="-13.8" font-family="Times,serif" font-size="14.00">left</text>
<polygon fill="none" stroke="black" points="68,-8 68,-28 112,-28 112,-8 68,-8"/>
<text text-anchor="start" x="70.56" y="-13.8" font-family="Times,serif" font-size="14.00">middle</text>
<polygon fill="none" stroke="black" points="112,-8 112,-28 144,-28 144,-8 112,-8"/>
<text text-anchor="start" x="114.78" y="-13.8" font-family="Times,serif" font-size="14.00">right</text>
</g>
<!-- nodeB -->
<g id="node2" class="node">
<title>nodeB</title>
<text text-anchor="middle" x="90" y="-99.8" font-family="Times,serif" font-size="14.00">This is label for nodeB.</text>
</g>
<!-- nodeB&#45;&gt;nodeA -->
<g id="edge1" class="edge">
<title>nodeB&#45;&gt;nodeA:m</title>
<path fill="none" stroke="blue" d="M90,-85.95C90,-73.53 90,-56.02 90,-39.27"/>
<polygon fill="blue" stroke="blue" points="93.5,-39 90,-29 86.5,-39 93.5,-39"/>
<text text-anchor="start" x="90" y="-57.8" font-family="Times,serif" font-weight="bold" font-size="14.00" fill="blue">A to B</text>
</g>
</g>
</svg>
