<svg xmlns="http://www.w3.org/2000/svg" width="913pt" height="592" viewBox="0 0 912.88 444"><g class="graph" transform="translate(4 440)"><path fill="#fff" stroke="transparent" d="M-4 4v-444h912.88V4z"/><g class="cluster"><path fill="none" stroke="#000" d="M8-8v-420h429.95V-8z"/><text x="222.97" y="-412.8" font-family="Times,serif" font-size="14" text-anchor="middle">Graph Creation</text></g><g class="cluster"><path fill="none" stroke="#000" d="M16-270v-127h248.93v127z"/><text x="140.46" y="-381.8" font-family="Times,serif" font-size="14" text-anchor="middle">Parsing</text></g><g class="cluster"><path fill="none" stroke="#000" d="M457.95-186v-127h198.17v127z"/><text x="557.04" y="-297.8" font-family="Times,serif" font-size="14" text-anchor="middle">Core Processing</text></g><g class="cluster"><path fill="none" stroke="#000" d="M676.12-183v-133h220.76v133z"/><text x="786.5" y="-300.8" font-family="Times,serif" font-size="14" text-anchor="middle">Rendering</text></g><g class="node"><path fill="none" stroke="#000" d="M307.68-262h-160v36h160z"/><text x="227.68" y="-240.3" font-family="Times,serif" font-size="14" text-anchor="middle">Object-Oriented API</text></g><g class="node"><circle cx="386.81" cy="-217" r="43.27" fill="none" stroke="#000"/><text x="386.81" y="-220.8" font-family="Times,serif" font-size="14" text-anchor="middle">Graph</text><text x="386.81" y="-205.8" font-family="Times,serif" font-size="14" text-anchor="middle">Model</text></g><g class="edge"><path fill="none" stroke="#000" d="m307.71-230.42 26.25 4.51"/><path stroke="#000" d="m334.72-229.33 9.27 5.14-10.45 1.76z"/></g><g class="node"><path fill="none" stroke="#000" d="M291.68-208h-128v36h128z"/><text x="227.68" y="-186.3" font-family="Times,serif" font-size="14" text-anchor="middle">Declarative API</text></g><g class="edge"><path fill="none" stroke="#000" d="M291.69-200.83c14.01-2.4 28.72-4.93 42.23-7.25"/><path stroke="#000" d="m333.54-211.57 10.45 1.76-9.27 5.14z"/></g><g class="node"><circle cx="227.68" cy="-85" r="69.09" fill="none" stroke="#000"/><text x="227.68" y="-88.8" font-family="Times,serif" font-size="14" text-anchor="middle">React</text><text x="227.68" y="-73.8" font-family="Times,serif" font-size="14" text-anchor="middle">Component</text></g><g class="edge"><path fill="none" stroke="#000" d="M281.44-129.32c20.85-17.51 44.42-37.31 63.88-53.66"/><path stroke="#000" d="m343.2-185.77 9.91-3.76-5.41 9.12z"/></g><g class="node"><circle cx="495.2" cy="-245" r="29.5" fill="none" stroke="#000"/><text x="495.2" y="-241.3" font-family="Times,serif" font-size="14" text-anchor="middle">AST</text></g><g class="edge"><path fill="none" stroke="#000" d="m428.64-227.75 28.22-7.42"/><path stroke="#000" d="m456.25-238.63 10.56.84-8.78 5.93z"/></g><g class="node"><circle cx="604.28" cy="-238" r="43.68" fill="none" stroke="#000"/><text x="604.28" y="-241.8" font-family="Times,serif" font-size="14" text-anchor="middle">DOT</text><text x="604.28" y="-226.8" font-family="Times,serif" font-size="14" text-anchor="middle">String</text></g><g class="edge"><path fill="none" stroke="#000" d="M429.39-208.4c27.24 4.27 63.51 7.38 95.05 1.4 10.08-1.91 20.52-5.08 30.38-8.68"/><path stroke="#000" d="m553.85-219.06 10.59-.34-8.07 6.87z"/></g><g class="node"><circle cx="67.84" cy="-322" r="43.68" fill="none" stroke="#000"/><text x="67.84" y="-325.8" font-family="Times,serif" font-size="14" text-anchor="middle">DOT</text><text x="67.84" y="-310.8" font-family="Times,serif" font-size="14" text-anchor="middle">String</text></g><g class="node"><circle cx="227.68" cy="-315" r="29.5" fill="none" stroke="#000"/><text x="227.68" y="-311.3" font-family="Times,serif" font-size="14" text-anchor="middle">AST</text></g><g class="edge"><path fill="none" stroke="#000" d="M111.97-320.09c23.75 1.06 52.98 2.35 75.99 3.37"/><path stroke="#000" d="m188.22-320.21 9.83 3.94-10.14 3.05z"/></g><g class="edge"><path fill="none" stroke="#000" d="M255.61-306.03c15.74 5.79 35.67 14.09 52.07 24.03 13.62 8.25 27.34 18.76 39.41 28.91"/><path stroke="#000" d="m349.46-255.67 5.3 9.17-9.87-3.86z"/></g><g class="edge"><path fill="none" stroke="#000" d="M524.61-243.14c7.84.51 16.61 1.08 25.37 1.66"/><path stroke="#000" d="m550.45-244.96 9.75 4.14-10.21 2.84z"/></g><g class="node"><path fill="none" stroke="#000" d="M758.12-285h-74v38h74z"/><text x="721.12" y="-269.8" font-family="Times,serif" font-size="14" text-anchor="middle">Node</text><text x="721.12" y="-254.8" font-family="Times,serif" font-size="14" text-anchor="middle">Adapter</text></g><g class="edge"><path fill="none" stroke="#000" d="M647.07-248.19c8.76-2.13 18.04-4.4 26.95-6.57"/><path stroke="#000" d="m673.32-258.19 10.55 1.03-8.89 5.77z"/></g><g class="node"><path fill="none" stroke="#000" d="M758.12-229h-74v38h74z"/><text x="721.12" y="-213.8" font-family="Times,serif" font-size="14" text-anchor="middle">Deno</text><text x="721.12" y="-198.8" font-family="Times,serif" font-size="14" text-anchor="middle">Adapter</text></g><g class="edge"><path fill="none" stroke="#000" d="M647.07-227.81c8.76 2.13 18.04 4.4 26.95 6.57"/><path stroke="#000" d="m674.98-224.61 8.89 5.77-10.55 1.03z"/></g><g class="node"><circle cx="841.5" cy="-238" r="47.25" fill="none" stroke="#000"/><text x="841.5" y="-241.8" font-family="Times,serif" font-size="14" text-anchor="middle">Visual</text><text x="841.5" y="-226.8" font-family="Times,serif" font-size="14" text-anchor="middle">Output</text></g><g class="edge"><path fill="none" stroke="#000" d="M758.28-257.45c8.49 2.01 17.73 4.2 26.85 6.35"/><path stroke="#000" d="m786-254.49 8.93 5.71-10.54 1.1z"/></g><g class="edge"><path fill="none" stroke="#000" d="M758.28-218.55c8.49-2.01 17.73-4.2 26.85-6.35"/><path stroke="#000" d="m784.39-228.32 10.54 1.1-8.93 5.71z"/></g></g></svg>