<svg xmlns="http://www.w3.org/2000/svg" xmlns:xlink="http://www.w3.org/1999/xlink" width="1649pt" height="218pt" viewBox="0 0 1649 218.05"><g class="graph" transform="translate(4 214.05)"><path fill="#fff" stroke="transparent" d="M-4 4v-218.05h1649V4z"/><g class="node"><a xlink:href="https://www.npmjs.com/package/@ts-graphviz/adapter" xlink:title="&lt;TABLE&gt;"><path fill="#f0f0f0" stroke="transparent" d="M682.5-182.05v-21h340v21z"/><path fill="none" stroke="#000" d="M682.5-182.05v-21h340v21z"/><text x="775" y="-188.85" font-family="Times,serif" font-size="14">@ts-graphviz/adapter</text><path fill="none" stroke="#000" d="M682.5-159.05v-21h340v21z"/><text x="685.5" y="-165.85" font-family="Times,serif" font-size="14">Graphviz Runtime adapters for Cross Platform</text><path fill="none" stroke="#000" d="M679.5-156.05v-50h346v50z"/></a></g><g class="node"><a xlink:href="https://www.npmjs.com/package/ts-graphviz" xlink:title="&lt;TABLE&gt;"><path fill="#f0f0f0" stroke="transparent" d="M1097.5-77.05v-21h231v21z"/><path fill="none" stroke="#000" d="M1097.5-77.05v-21h231v21z"/><text x="1172.5" y="-83.85" font-family="Times,serif" font-size="14">ts-graphviz</text><path fill="none" stroke="#000" d="M1097.5-54.05v-21h231v21z"/><text x="1100.5" y="-60.85" font-family="Times,serif" font-size="14">Graphviz library for TypeScript</text><path fill="none" stroke="#000" d="M1094-51.05v-50h237v50z"/></a></g><g class="edge"><path fill="none" stroke="#000" d="M1027.03-149.5c7.79 2.05 15.48 4.2 22.97 6.45 33.72 10.14 70.04 24.85 99.68 37.9"/><path stroke="#000" d="m1025.92-146.17-8.82-5.87 10.56-.91z"/></g><g class="node"><a xlink:href="https://www.npmjs.com/package/@ts-graphviz/ast" xlink:title="&lt;TABLE&gt;"><path fill="#f0f0f0" stroke="transparent" d="M280-68.05v-21h328v21z"/><path fill="none" stroke="#000" d="M280-68.05v-21h328v21z"/><text x="383.5" y="-74.85" font-family="Times,serif" font-size="14">@ts-graphviz/ast</text><path fill="none" stroke="#000" d="M280-45.05v-21h328v21z"/><text x="283" y="-51.85" font-family="Times,serif" font-size="14">Graphviz AST(Abstract Syntax Tree) Utilities</text><path fill="none" stroke="#000" d="M277-42.05v-50h334v50z"/></a></g><g class="node"><a xlink:href="https://www.npmjs.com/package/@ts-graphviz/core" xlink:title="&lt;TABLE&gt;"><path fill="#f0f0f0" stroke="transparent" d="M666.5-106.05v-21h373v21z"/><path fill="none" stroke="#000" d="M666.5-106.05v-21h373v21z"/><text x="788" y="-112.85" font-family="Times,serif" font-size="14">@ts-graphviz/core</text><path fill="none" stroke="#000" d="M666.5-83.05v-21h373v21z"/><text x="669.5" y="-89.85" font-family="Times,serif" font-size="14">Graphviz Models for Object-Oriented Programming</text><path fill="none" stroke="#000" d="M663-80.05v-50h379v50z"/></a></g><g class="edge"><path fill="none" stroke="#000" d="M629.19-84.27c8.56-.8 17.17-1.6 25.77-2.41"/><path stroke="#000" d="m629.44-80.78-10.28-2.55 9.63-4.42z"/></g><g class="edge"><path fill="none" stroke="#000" d="M629.13-64.39c119.89 1.07 279.68 1.27 420.87-2.66 11.65-.32 23.77-.78 35.89-1.31"/><path stroke="#000" d="m629.08-60.89-9.97-3.59 10.04-3.41z"/></g><g class="node"><a xlink:href="https://www.npmjs.com/package/@ts-graphviz/common" xlink:title="&lt;TABLE&gt;"><path fill="#f0f0f0" stroke="transparent" d="M11.5-96.05v-21h211v21z"/><path fill="none" stroke="#000" d="M11.5-96.05v-21h211v21z"/><text x="37" y="-102.85" font-family="Times,serif" font-size="14">@ts-graphviz/common</text><path fill="none" stroke="#000" d="M11.5-73.05v-21h211v21z"/><text x="14.5" y="-79.85" font-family="Times,serif" font-size="14">Graphviz Types and Utilities</text><path fill="none" stroke="#000" d="M8-70.05v-50h217v50z"/></a></g><g class="edge"><path fill="none" stroke="#000" d="M243.1-116.36c8.76-1.31 17.45-2.55 25.9-3.69 134.53-18.13 287.16-33.94 402.42-44.92"/><path stroke="#000" d="m243.61-112.9-10.41-1.96 9.36-4.96z"/></g><g class="edge"><path fill="none" stroke="#000" d="M243.32-84.23c8.38.72 16.89 1.46 25.45 2.19"/><path stroke="#000" d="m242.84-80.75-9.66-4.35 10.26-2.63z"/></g><g class="edge"><path fill="none" stroke="#000" d="M243.43-104c8.65-.41 17.24-.77 25.57-1.05 128.49-4.23 273.01-4.26 385.95-3.22"/><path stroke="#000" d="m243.43-100.49-10.17-2.99 9.81-4z"/></g><g class="edge"><path fill="none" stroke="#000" d="M178.96-61.42C205.77-48.58 238.1-35.49 269-29.05c287.49 59.9 634.47 12.88 816.67-20.71"/><path stroke="#000" d="m177.16-58.41-7.45-7.53 10.52 1.24z"/></g><g class="edge"><path fill="none" stroke="#000" d="M1060.17-88.31c8.6.7 17.1 1.39 25.44 2.06"/><path stroke="#000" d="m1059.73-84.83-9.69-4.3 10.25-2.68z"/></g><g class="node"><a xlink:href="https://www.npmjs.com/package/@ts-graphviz/react" xlink:title="&lt;TABLE&gt;"><path fill="#f0f0f0" stroke="transparent" d="M1386-77.05v-21h244v21z"/><path fill="none" stroke="#000" d="M1386-77.05v-21h244v21z"/><text x="1440" y="-83.85" font-family="Times,serif" font-size="14">@ts-graphviz/react</text><path fill="none" stroke="#000" d="M1386-54.05v-21h244v21z"/><text x="1389" y="-60.85" font-family="Times,serif" font-size="14">Graphviz-dot Renderer for React.</text><path fill="none" stroke="#000" d="M1383-51.05v-50h250v50z"/></a></g><g class="edge"><path fill="none" stroke="#000" d="M1349.26-76.05h25.7"/><path stroke="#000" d="m1349.25-72.55-10-3.5 10-3.5z"/></g></g></svg>