<svg xmlns="http://www.w3.org/2000/svg" width="496pt" height="260pt" viewBox="0 0 496.34 260"><g class="graph" transform="translate(4 256)"><path fill="#fff" stroke="transparent" d="M-4 4v-260h496.34V4z"/><g class="node"><ellipse cx="200.44" cy="-18" fill="none" stroke="#000" rx="63.09" ry="18"/><text x="200.44" y="-14.3" font-family="Times,serif" font-size="14" text-anchor="middle">ts-graphviz</text></g><g class="node"><ellipse cx="131.44" cy="-90" fill="none" stroke="#000" rx="111.28" ry="18"/><text x="131.44" y="-86.3" font-family="Times,serif" font-size="14" text-anchor="middle">@ts-graphviz/adapter</text></g><g class="edge"><path fill="none" stroke="#000" d="M148.15-72.05c8.56 8.68 19.13 19.41 28.53 28.94"/><path stroke="#000" d="m179.37-45.37 4.53 9.58-9.52-4.66z"/></g><g class="node"><ellipse cx="270.44" cy="-162" fill="none" stroke="#000" rx="89.08" ry="18"/><text x="270.44" y="-158.3" font-family="Times,serif" font-size="14" text-anchor="middle">@ts-graphviz/ast</text></g><g class="edge"><path fill="none" stroke="#000" d="M269.58-143.99c-1.55 18.65-5.91 48.97-18.14 71.99-5.83 10.99-14.62 21.29-23.26 29.84"/><path stroke="#000" d="m230.39-39.43-9.69 4.3 4.89-9.4z"/></g><g class="node"><ellipse cx="393.44" cy="-90" fill="none" stroke="#000" rx="94.78" ry="18"/><text x="393.44" y="-86.3" font-family="Times,serif" font-size="14" text-anchor="middle">@ts-graphviz/core</text></g><g class="edge"><path fill="none" stroke="#000" d="M298.97-144.76c16.88 9.6 38.46 21.88 56.74 32.28"/><path stroke="#000" d="m357.69-115.38 6.96 7.99-10.43-1.9z"/></g><g class="node"><ellipse cx="211.44" cy="-234" fill="none" stroke="#000" rx="114.28" ry="18"/><text x="211.44" y="-230.3" font-family="Times,serif" font-size="14" text-anchor="middle">@ts-graphviz/common</text></g><g class="edge"><path fill="none" stroke="#000" d="M161.73-217.67C87.57-192.23-38.24-137.54 11.44-72 26.58-52.03 86.68-37.52 135.1-28.78"/><path stroke="#000" d="m135.99-32.18 9.25 5.18-10.46 1.72z"/></g><g class="edge"><path fill="none" stroke="#000" d="M197.52-215.95c-7.89 10.11-17.64 23.36-25.08 35.95-11.88 20.15-22.83 44.34-30.42 62.41"/><path stroke="#000" d="m145.22-116.16-7.05 7.91.57-10.58z"/></g><g class="edge"><path fill="none" stroke="#000" d="M225.73-216.05c7.17 8.51 16 18.98 23.91 28.37"/><path stroke="#000" d="m252.53-189.69 3.76 9.9-9.12-5.39z"/></g><g class="edge"><path fill="none" stroke="#000" d="M292.82-221.3c27.24 7.66 55.72 20.33 75.62 41.3 15.76 16.6 21.72 42.32 23.91 61.85"/><path stroke="#000" d="m395.85-118.3-2.63 10.26-4.34-9.66z"/></g><g class="edge"><path fill="none" stroke="#000" d="M351.57-73.81c-30.65 11.11-72.25 26.2-104.04 37.73"/><path stroke="#000" d="m248.59-32.74-10.6.12 8.21-6.7z"/></g></g></svg>