<svg xmlns="http://www.w3.org/2000/svg" xmlns:xlink="http://www.w3.org/1999/xlink" width="1649pt" height="296pt" viewBox="0 0 1649 295.71"><g class="graph" transform="translate(4 291.71)"><path fill="#fff" stroke="transparent" d="M-4 4v-295.71h1649V4z"/><g class="node"><a xlink:href="https://www.npmjs.com/package/@ts-graphviz/adapter" xlink:title="&lt;TABLE&gt;"><path fill="#f0f0f0" stroke="transparent" d="M682.5-210.62v-21h340v21z"/><path fill="none" stroke="#000" d="M682.5-210.62v-21h340v21z"/><text x="775" y="-217.42" font-family="Times,serif" font-size="14">@ts-graphviz/adapter</text><path fill="none" stroke="#000" d="M682.5-187.62v-21h340v21z"/><text x="685.5" y="-194.42" font-family="Times,serif" font-size="14">Graphviz Runtime adapters for Cross Platform</text><path fill="none" stroke="#000" d="M679.5-184.62v-50h346v50z"/></a></g><g class="node"><a xlink:href="https://www.npmjs.com/package/ts-graphviz" xlink:title="&lt;TABLE&gt;"><path fill="#f0f0f0" stroke="transparent" d="M1097.5-134.62v-21h231v21z"/><path fill="none" stroke="#000" d="M1097.5-134.62v-21h231v21z"/><text x="1172.5" y="-141.42" font-family="Times,serif" font-size="14">ts-graphviz</text><path fill="none" stroke="#000" d="M1097.5-111.62v-21h231v21z"/><text x="1100.5" y="-118.42" font-family="Times,serif" font-size="14">Graphviz library for TypeScript</text><path fill="none" stroke="#000" d="M1094-108.62v-50h237v50z"/></a></g><g class="edge"><path fill="none" stroke="#000" d="M1016.69-178.59c11.28 2.31 22.47 4.64 33.31 6.97 13.1 2.8 26.76 5.84 40.36 8.94"/><path stroke="#000" d="m1015.85-175.18-9.1-5.43 10.5-1.43z"/></g><g class="node"><a xlink:href="https://www.npmjs.com/package/@ts-graphviz/ast" xlink:title="&lt;TABLE&gt;"><path fill="#f0f0f0" stroke="transparent" d="M280-101.62v-21h328v21z"/><path fill="none" stroke="#000" d="M280-101.62v-21h328v21z"/><text x="383.5" y="-108.42" font-family="Times,serif" font-size="14">@ts-graphviz/ast</text><path fill="none" stroke="#000" d="M280-78.62v-21h328v21z"/><text x="283" y="-85.42" font-family="Times,serif" font-size="14">Graphviz AST(Abstract Syntax Tree) Utilities</text><path fill="none" stroke="#000" d="M277-75.62v-50h334v50z"/></a></g><g class="node"><a xlink:href="https://www.npmjs.com/package/@ts-graphviz/core" xlink:title="&lt;TABLE&gt;"><path fill="#f0f0f0" stroke="transparent" d="M666.5-134.62v-21h373v21z"/><path fill="none" stroke="#000" d="M666.5-134.62v-21h373v21z"/><text x="788" y="-141.42" font-family="Times,serif" font-size="14">@ts-graphviz/core</text><path fill="none" stroke="#000" d="M666.5-111.62v-21h373v21z"/><text x="669.5" y="-118.42" font-family="Times,serif" font-size="14">Graphviz Models for Object-Oriented Programming</text><path fill="none" stroke="#000" d="M663-108.62v-50h379v50z"/></a></g><g class="edge"><path fill="none" stroke="#000" d="M629.19-115.58c8.56-.69 17.17-1.39 25.77-2.09"/><path stroke="#000" d="m629.41-112.08-10.25-2.68 9.69-4.3z"/></g><g class="edge"><path fill="none" stroke="#000" d="M629.07-87.34c120.21 5.79 280.37 8.03 420.93-8.28 17.45-2.03 35.76-5.25 53.52-8.97"/><path stroke="#000" d="m628.85-83.84-9.82-3.99 10.16-3z"/></g><g class="node"><a xlink:href="https://www.npmjs.com/package/@ts-graphviz/common" xlink:title="&lt;TABLE&gt;"><path fill="#f0f0f0" stroke="transparent" d="M11.5-158.62v-21h211v21z"/><path fill="none" stroke="#000" d="M11.5-158.62v-21h211v21z"/><text x="37" y="-165.42" font-family="Times,serif" font-size="14">@ts-graphviz/common</text><path fill="none" stroke="#000" d="M11.5-135.62v-21h211v21z"/><text x="14.5" y="-142.42" font-family="Times,serif" font-size="14">Graphviz Types and Utilities</text><path fill="none" stroke="#000" d="M8-132.62v-50h217v50z"/></a></g><g class="edge"><path fill="none" stroke="#000" d="M243.55-166.55c117.88-8.36 295.19-20.92 427.94-30.32"/><path stroke="#000" d="m243.62-163.05-10.22-2.79 9.73-4.19z"/></g><g class="edge"><path fill="none" stroke="#000" d="M243.34-135.59c11.16 1.96 22.55 3.95 33.97 5.95"/><path stroke="#000" d="m242.42-132.2-9.24-5.17 10.45-1.72z"/></g><g class="edge"><path fill="none" stroke="#000" d="M243.48-153.51c112.98 3.7 280.61 9.18 411.26 13.45"/><path stroke="#000" d="m243.28-150.01-9.88-3.82 10.11-3.18z"/></g><g class="node"><a xlink:href="https://www.npmjs.com/package/@ts-graphviz/react" xlink:title="&lt;TABLE&gt;"><path fill="#f0f0f0" stroke="transparent" d="M1386-86.62v-21h244v21z"/><path fill="none" stroke="#000" d="M1386-86.62v-21h244v21z"/><text x="1440" y="-93.42" font-family="Times,serif" font-size="14">@ts-graphviz/react</text><path fill="none" stroke="#000" d="M1386-63.62v-21h244v21z"/><text x="1389" y="-70.42" font-family="Times,serif" font-size="14">Graphviz-dot Renderer for React.</text><path fill="none" stroke="#000" d="M1383-60.62v-50h250v50z"/></a></g><g class="edge"><path fill="none" stroke="#000" d="M159.66-122.08c28.77 21.85 68.88 47.82 109.34 59.46 389.17 111.92 875.93 46.67 1105.95 4.39"/><path stroke="#000" d="m157.24-119.52-5.76-8.89 10.05 3.35z"/></g><g class="edge"><path fill="none" stroke="#000" d="M208.64-189.8c169.84-54.91 544.44-152.06 841.36-57.82 52.34 16.61 102.34 56.99 132.48 84.93"/><path stroke="#000" d="m209.57-186.43-10.59-.22 8.42-6.43z"/></g><g class="edge"><path fill="none" stroke="#000" d="M1060.17-133.62h25.44"/><path stroke="#000" d="m1060.04-130.12-10-3.5 10-3.5z"/></g><g class="edge"><path fill="none" stroke="#000" d="M1349.26-111.42c8.56 1.4 17.16 2.81 25.7 4.2"/><path stroke="#000" d="m1348.55-107.99-9.3-5.07 10.43-1.84z"/></g></g></svg>