<svg width="503pt" height="196pt" viewBox="0 0 502.69 195.5" xmlns="http://www.w3.org/2000/svg"><g class="graph" transform="translate(4 191.5)"><path fill="#fff" stroke="transparent" d="M-4 4v-195.5h502.69V4H-4z"/><g class="node"><path fill="none" stroke="#000" d="M13-96v-91h194v91H13z"/><text text-anchor="middle" x="110" y="-171.8" font-family="Times,serif" font-size="14">Model Factory Functions</text><path fill="none" stroke="#000" d="M13-164h194"/><text x="21" y="-148.8" font-family="Times,serif" font-size="14">strict.digraph(...)</text><text x="21" y="-133.8" font-family="Times,serif" font-size="14">strict.graph(...)</text><text x="21" y="-118.8" font-family="Times,serif" font-size="14">digraph(...)</text><text x="21" y="-103.8" font-family="Times,serif" font-size="14">graph(...)</text></g><g class="node"><circle fill="none" stroke="#000" cx="296.65" cy="-89.5" r="39.79"/><text text-anchor="middle" x="296.65" y="-85.8" font-family="Times,serif" font-size="14">Model</text></g><g class="edge"><path fill="none" stroke="#000" d="M207.11-114.43c14.38 4.05 28.64 8.06 41.38 11.65"/><path stroke="#000" d="m249.67-106.08 8.68 6.08-10.57.65 1.89-6.73z"/></g><g class="node"><path fill="none" stroke="#000" d="M0-.5v-76h220v76H0z"/><text text-anchor="middle" x="110" y="-61.3" font-family="Times,serif" font-size="14">Object Oriented Programing</text><path fill="none" stroke="#000" d="M0-53.5h220"/><text x="8" y="-38.3" font-family="Times,serif" font-size="14">new Digraph(...)</text><text x="8" y="-23.3" font-family="Times,serif" font-size="14">new Graph(...)</text><text x="8" y="-8.3" font-family="Times,serif" font-size="14">...</text></g><g class="edge"><path fill="none" stroke="#000" d="M220.01-68.61c9.87-2.73 19.48-5.38 28.35-7.83"/><path stroke="#000" d="m247.47-79.82 10.57.71-8.7 6.03-1.87-6.74z"/></g><g class="node"><circle fill="none" stroke="#000" cx="463.49" cy="-89.5" r="31.4"/><text text-anchor="middle" x="463.49" y="-85.8" font-family="Times,serif" font-size="14">DOT</text></g><g class="edge"><path fill="none" stroke="#000" d="M336.3-89.5h85.43"/><path stroke="#000" d="m422.05-93 10 3.5-10 3.5v-7z"/><text text-anchor="middle" x="384.29" y="-93.3" font-family="Times,serif" font-size="14">toDot</text></g><g class="edge"><path fill="none" stroke="#000" d="M434.99-76.62c-6.64 2.54-13.8 4.81-20.7 6.12-26.2 4.98-33.68 4.3-60 0-3.48-.57-7.04-1.32-10.59-2.2"/><path stroke="#000" d="m342.47-69.41-8.7-6.05 10.58-.69-1.88 6.74z"/><text text-anchor="middle" x="384.29" y="-74.3" font-family="Times,serif" font-size="14">fromDot</text></g></g></svg>
