<svg width="644" height="196pt" viewBox="0 0 482.69 195.5" xmlns="http://www.w3.org/2000/svg"><g class="graph" transform="translate(4 191.5)"><path fill="#fff" stroke="transparent" d="M-4 4v-195.5h482.69V4H-4z"/><g class="node"><path fill="none" stroke="#000" d="M38-96v-91h144v91H38z"/><text text-anchor="middle" x="110" y="-171.8" font-family="Times,serif" font-size="14">Builder Functions</text><path fill="none" stroke="#000" d="M38-164h144"/><text x="46" y="-148.8" font-family="Times,serif" font-size="14">strict.digraph(...)</text><text x="46" y="-133.8" font-family="Times,serif" font-size="14">strict.graph(...)</text><text x="46" y="-118.8" font-family="Times,serif" font-size="14">digraph(...)</text><text x="46" y="-103.8" font-family="Times,serif" font-size="14">graph(...)</text></g><g class="node"><circle fill="none" stroke="#000" cx="296.65" cy="-89.5" r="39.79"/><text text-anchor="middle" x="296.65" y="-85.8" font-family="Times,serif" font-size="14">Model</text></g><g class="edge"><path fill="none" stroke="#000" d="M182.13-121.47c22.24 6.27 46.23 13.02 66.39 18.7"/><path stroke="#000" d="m249.71-106.07 8.68 6.08-10.57.66 1.89-6.74z"/></g><g class="node"><path fill="none" stroke="#000" d="M0-.5v-76h220v76H0z"/><text text-anchor="middle" x="110" y="-61.3" font-family="Times,serif" font-size="14">Object Oriented Programing</text><path fill="none" stroke="#000" d="M0-53.5h220"/><text x="8" y="-38.3" font-family="Times,serif" font-size="14">new Digraph(...)</text><text x="8" y="-23.3" font-family="Times,serif" font-size="14">new Graph(...)</text><text x="8" y="-8.3" font-family="Times,serif" font-size="14">...</text></g><g class="edge"><path fill="none" stroke="#000" d="M220.01-68.61c9.87-2.73 19.48-5.38 28.35-7.83"/><path stroke="#000" d="m247.47-79.82 10.57.71-8.7 6.03-1.87-6.74z"/></g><g class="node"><circle fill="none" stroke="#000" cx="443.49" cy="-89.5" r="31.4"/><text text-anchor="middle" x="443.49" y="-85.8" font-family="Times,serif" font-size="14">DOT</text></g><g class="edge"><path fill="none" stroke="#000" d="M336.46-89.5h65.12"/><path stroke="#000" d="m401.83-93 10 3.5-10 3.5v-7z"/><text text-anchor="middle" x="374.29" y="-93.3" font-family="Times,serif" font-size="14">toDot</text></g></g></svg>
