<svg width="408" height="275pt" viewBox="0 0 306 275" xmlns="http://www.w3.org/2000/svg"><g class="graph" transform="translate(4 271)"><path fill="#fff" stroke="transparent" d="M-4 4v-275h306V4H-4z"/><g class="node"><circle fill="none" stroke="#000" cx="54" cy="-213" r="54"/><text text-anchor="middle" x="54" y="-209.3" font-family="Times,serif" font-size="14">DOT</text></g><g class="node"><circle fill="none" stroke="#000" cx="235" cy="-213" r="54"/><text text-anchor="middle" x="235" y="-209.3" font-family="Times,serif" font-size="14">MODEL</text></g><g class="edge"><path fill="none" stroke="#000" d="M108.31-213h62.28"/><path stroke="#000" d="m170.73-216.5 10 3.5-10 3.5v-7z"/><text text-anchor="middle" x="144.5" y="-219.8" font-family="Times,serif" font-size="14">convert</text></g><g class="node"><circle fill="none" stroke="#000" cx="143" cy="-54" r="54"/><text text-anchor="middle" x="143" y="-50.3" font-family="Times,serif" font-size="14">AST</text></g><g class="edge"><path fill="none" stroke="#000" d="M34.66-162.5c-2.02 12.43-1.53 25.38 4.34 36.5 10.05 19.02 27.73 33.91 45.71 45.03"/><path stroke="#000" d="m86.66-83.88 6.86 8.07-10.4-2.03 3.54-6.04z"/><text text-anchor="middle" x="59" y="-129.8" font-family="Times,serif" font-size="14">parse</text></g><g class="edge"><path fill="none" stroke="#000" d="M182.92-198.16c-6.17 1.3-12.4 2.4-18.42 3.16-17.64 2.22-22.36 2.22-40 0-2.82-.35-5.69-.79-8.58-1.28"/><path stroke="#000" d="m115.24-192.84-9.16-5.32 10.48-1.56-1.32 6.88z"/><text text-anchor="middle" x="144.5" y="-198.8" font-family="Times,serif" font-size="14">toDot</text></g><g class="edge"><path fill="none" stroke="#000" d="M203.69-168.7c-6.1 9.01-12.28 18.55-17.69 27.7-5.34 9.04-10.66 18.83-15.63 28.45"/><path stroke="#000" d="m173.37-110.72-7.66 7.32 1.42-10.5 6.24 3.18z"/><text text-anchor="middle" x="207.5" y="-129.8" font-family="Times,serif" font-size="14">toAST</text></g><g class="edge"><path fill="none" stroke="#000" d="M116.22-101.16c-4.76-8.26-9.65-16.79-14.22-24.84-5.62-9.89-11.55-20.45-17.27-30.66"/><path stroke="#000" d="m81.61-155.08-1.83-10.43 7.94 7.02-6.11 3.41z"/><text text-anchor="middle" x="132.5" y="-129.8" font-family="Times,serif" font-size="14">stringify</text></g><g class="edge"><path fill="none" stroke="#000" d="M189.11-82.1c15.37-11.5 30.86-26.34 39.89-43.9 3.61-7.02 5.99-14.79 7.49-22.72"/><path stroke="#000" d="m233.05-149.39 4.89-9.4 2.04 10.4-6.93-1z"/><text text-anchor="middle" x="266.5" y="-129.8" font-family="Times,serif" font-size="14">fromAST</text></g></g></svg>