<svg width="293pt" height="275pt" viewBox="0 0 293 275" xmlns="http://www.w3.org/2000/svg"><g class="graph"><path fill="#fff" stroke="transparent" d="M0 275V0h293v275H0z"/><g class="node" transform="translate(4 271)"><circle fill="none" stroke="#000" cx="54" cy="-213" r="54"/><text text-anchor="middle" x="54" y="-209.3" font-family="Times,serif" font-size="14">AST</text></g><g class="node" transform="translate(4 271)"><circle fill="none" stroke="#000" cx="222" cy="-213" r="54"/><text text-anchor="middle" x="222" y="-209.3" font-family="Times,serif" font-size="14">Model</text></g><g class="edge" transform="translate(4 271)"><path fill="none" stroke="#000" d="M108.08-213h49.62"/><path stroke="#000" d="m157.73-216.5 10 3.5-10 3.5v-7z"/><text text-anchor="middle" x="138" y="-219.8" font-family="Times,serif" font-size="14">convert</text></g><g class="node" transform="translate(4 271)"><circle fill="none" stroke="#000" cx="153" cy="-54" r="54"/><text text-anchor="middle" x="153" y="-50.3" font-family="Times,serif" font-size="14">DOT</text></g><g class="edge" transform="translate(4 271)"><path fill="none" stroke="#000" d="M21.89-169.58c-6.9 14.32-9.98 30.09-1.89 43.58 15.66 26.1 44.53 43.14 71.39 53.97"/><path stroke="#000" d="m92.68-75.29 8.1 6.83-10.59-.29 2.49-6.54z"/><text text-anchor="middle" x="58.5" y="-129.8" font-family="Times,serif" font-size="14">AST.stringify</text></g><g class="edge" transform="translate(4 271)"><path fill="none" stroke="#000" d="M200.55-163.18c-6.95 15.8-14.72 33.48-21.94 49.9"/><path stroke="#000" d="m181.67-111.53-7.23 7.75.82-10.57 6.41 2.82z"/><text text-anchor="middle" x="206" y="-129.8" font-family="Times,serif" font-size="14">toDot</text></g><g class="edge" transform="translate(4 271)"><path fill="none" stroke="#000" d="M124.63-100c-11.5-18.23-24.87-39.43-36.86-58.44"/><path stroke="#000" d="m84.74-156.68-2.37-10.33 8.29 6.59-5.92 3.74z"/><text text-anchor="middle" x="137.5" y="-129.8" font-family="Times,serif" font-size="14">AST.paese</text></g><g class="edge" transform="translate(4 271)"><path fill="none" stroke="#000" d="M197.09-85.71C209.46-96.83 221.34-110.52 228-126c3.24-7.53 4.82-15.77 5.3-24.07"/><path stroke="#000" d="m229.8-150.22 3.58-9.97 3.42 10.03-7-.06z"/><text text-anchor="middle" x="258.5" y="-129.8" font-family="Times,serif" font-size="14">paese/dot</text></g></g></svg>