<svg width="328pt" height="275pt" viewBox="0 0 328 275" xmlns="http://www.w3.org/2000/svg"><g class="graph" transform="translate(4 271)"><path fill="#fff" stroke="transparent" d="M-4 4v-275h328V4H-4z"/><g class="node"><circle fill="none" stroke="#000" cx="54" cy="-213" r="54"/><text text-anchor="middle" x="54" y="-209.3" font-family="Times,serif" font-size="14">AST</text></g><g class="node"><circle fill="none" stroke="#000" cx="235" cy="-213" r="54"/><text text-anchor="middle" x="235" y="-209.3" font-family="Times,serif" font-size="14">Model</text></g><g class="edge"><path fill="none" stroke="#000" d="M108.31-213h62.28"/><path stroke="#000" d="m170.73-216.5 10 3.5-10 3.5v-7z"/><text text-anchor="middle" x="144.5" y="-219.8" font-family="Times,serif" font-size="14">convert</text></g><g class="node"><circle fill="none" stroke="#000" cx="156" cy="-54" r="54"/><text text-anchor="middle" x="156" y="-50.3" font-family="Times,serif" font-size="14">DOT</text></g><g class="edge"><path fill="none" stroke="#000" d="M14.48-175.56C2.49-160.08-5.13-141.96 5-126c19.42 30.59 55.9 48.23 88.14 58.28"/><path stroke="#000" d="m94.37-71 8.62 6.16-10.58.55L94.37-71z"/><text text-anchor="middle" x="51.5" y="-129.8" font-family="Times,serif" font-size="14">AST.stringify</text></g><g class="edge"><path fill="none" stroke="#000" d="M211.08-164.47c-8.31 16.53-17.72 35.23-26.38 52.44"/><path stroke="#000" d="m187.59-110-7.62 7.36 1.37-10.51 6.25 3.15z"/><text text-anchor="middle" x="218" y="-129.8" font-family="Times,serif" font-size="14">toDot</text></g><g class="edge"><path fill="none" stroke="#000" d="M126.94-99.72c-11.87-18.28-25.71-39.58-38.12-58.69"/><path stroke="#000" d="m85.74-156.72-2.51-10.29 8.38 6.48-5.87 3.81z"/><text text-anchor="middle" x="145.5" y="-129.8" font-family="Times,serif" font-size="14">AST.paese</text></g><g class="edge"><path fill="none" stroke="#000" d="M203.44-80.78c16.28-11.51 32.64-26.7 41.56-45.22 3.7-7.69 5.27-16.2 5.47-24.79"/><path stroke="#000" d="m246.97-150.74 3.15-10.12 3.85 9.87-7 .25z"/><text text-anchor="middle" x="285" y="-129.8" font-family="Times,serif" font-size="14">paese/dot</text></g></g></svg>