<?xml version="1.0" encoding="UTF-8" standalone="no"?>
<!DOCTYPE svg PUBLIC "-//W3C//DTD SVG 1.1//EN"
 "http://www.w3.org/Graphics/SVG/1.1/DTD/svg11.dtd">
<!-- Generated by graphviz version 2.43.0 (0)
 -->
<!-- Title: BlogPlatformERD Pages: 1 -->
<svg width="1211pt" height="1286pt"
 viewBox="0.00 0.00 1211.20 1286.20" xmlns="http://www.w3.org/2000/svg" xmlns:xlink="http://www.w3.org/1999/xlink">
<g id="graph0" class="graph" transform="scale(1 1) rotate(0) translate(57.6 1228.6)">
<title>BlogPlatformERD</title>
<polygon fill="white" stroke="transparent" points="-57.6,57.6 -57.6,-1228.6 1153.6,-1228.6 1153.6,57.6 -57.6,57.6"/>
<g id="clust1" class="cluster">
<title>cluster_core</title>
<path fill="#e8eaf6" fill-opacity="0.125490" stroke="#3f51b5" stroke-width="2" d="M57,-597C57,-597 1076,-597 1076,-597 1082,-597 1088,-603 1088,-609 1088,-609 1088,-949 1088,-949 1088,-955 1082,-961 1076,-961 1076,-961 57,-961 57,-961 51,-961 45,-955 45,-949 45,-949 45,-609 45,-609 45,-603 51,-597 57,-597"/>
<text text-anchor="middle" x="566.5" y="-944.2" font-family="Helvetica,sans-Serif" font-weight="bold" font-size="16.00">CORE ENTITIES</text>
</g>
<g id="clust2" class="cluster">
<title>cluster_junction</title>
<path fill="#fff3e0" fill-opacity="0.125490" stroke="#ff9800" stroke-width="2" d="M281,-332C281,-332 1053,-332 1053,-332 1059,-332 1065,-338 1065,-344 1065,-344 1065,-516 1065,-516 1065,-522 1059,-528 1053,-528 1053,-528 281,-528 281,-528 275,-528 269,-522 269,-516 269,-516 269,-344 269,-344 269,-338 275,-332 281,-332"/>
<text text-anchor="middle" x="667" y="-511.2" font-family="Helvetica,sans-Serif" font-weight="bold" font-size="16.00">JUNCTION TABLES</text>
</g>
<g id="clust3" class="cluster">
<title>cluster_lookup</title>
<path fill="#e8f5e9" fill-opacity="0.125490" stroke="#4caf50" stroke-width="2" d="M600,-8C600,-8 1060,-8 1060,-8 1066,-8 1072,-14 1072,-20 1072,-20 1072,-240 1072,-240 1072,-246 1066,-252 1060,-252 1060,-252 600,-252 600,-252 594,-252 588,-246 588,-240 588,-240 588,-20 588,-20 588,-14 594,-8 600,-8"/>
<text text-anchor="middle" x="830" y="-235.2" font-family="Helvetica,sans-Serif" font-weight="bold" font-size="16.00">LOOKUP TABLES</text>
</g>
<g id="clust4" class="cluster">
<title>cluster_user_ext</title>
<path fill="#f3e5f5" fill-opacity="0.125490" stroke="#9c27b0" stroke-width="2" d="M20,-8C20,-8 528,-8 528,-8 534,-8 540,-14 540,-20 540,-20 540,-240 540,-240 540,-246 534,-252 528,-252 528,-252 20,-252 20,-252 14,-252 8,-246 8,-240 8,-240 8,-20 8,-20 8,-14 14,-8 20,-8"/>
<text text-anchor="middle" x="274" y="-235.2" font-family="Helvetica,sans-Serif" font-weight="bold" font-size="16.00">USER EXTENSIONS</text>
</g>
<!-- users -->
<g id="node1" class="node">
<title>users</title>
<path fill="#e8eaf6" stroke="transparent" d="M95.5,-667C95.5,-667 254.5,-667 254.5,-667 260.5,-667 266.5,-673 266.5,-679 266.5,-679 266.5,-827 266.5,-827 266.5,-833 260.5,-839 254.5,-839 254.5,-839 95.5,-839 95.5,-839 89.5,-839 83.5,-833 83.5,-827 83.5,-827 83.5,-679 83.5,-679 83.5,-673 89.5,-667 95.5,-667"/>
<polygon fill="#3f51b5" stroke="transparent" points="85,-812 85,-838 266,-838 266,-812 85,-812"/>
<text text-anchor="start" x="152" y="-822.6" font-family="Helvetica,sans-Serif" font-weight="bold" font-size="13.00" fill="white">USERS</text>
<polygon fill="#e3f2fd" stroke="transparent" points="85,-788 85,-812 180,-812 180,-788 85,-788"/>
<text text-anchor="start" x="91" y="-797.2" font-family="Helvetica,sans-Serif" font-size="11.00">ğ™‹ğ™† id</text>
<polygon fill="#e3f2fd" stroke="transparent" points="180,-788 180,-812 266,-812 266,-788 180,-788"/>
<text text-anchor="start" x="186" y="-797.5" font-family="Helvetica,sans-Serif" font-size="10.00" fill="#666666">UUID</text>
<text text-anchor="start" x="91" y="-773.2" font-family="Helvetica,sans-Serif" font-size="11.00">username</text>
<text text-anchor="start" x="186" y="-773.5" font-family="Helvetica,sans-Serif" font-size="10.00" fill="#666666">VARCHAR(50)</text>
<text text-anchor="start" x="91" y="-749.2" font-family="Helvetica,sans-Serif" font-size="11.00">email</text>
<text text-anchor="start" x="186" y="-749.5" font-family="Helvetica,sans-Serif" font-size="10.00" fill="#666666">VARCHAR(255)</text>
<text text-anchor="start" x="91" y="-725.2" font-family="Helvetica,sans-Serif" font-size="11.00">password_hash</text>
<text text-anchor="start" x="186" y="-725.5" font-family="Helvetica,sans-Serif" font-size="10.00" fill="#666666">VARCHAR(255)</text>
<text text-anchor="start" x="91" y="-701.2" font-family="Helvetica,sans-Serif" font-size="11.00">created_at</text>
<text text-anchor="start" x="186" y="-701.5" font-family="Helvetica,sans-Serif" font-size="10.00" fill="#666666">TIMESTAMP</text>
<text text-anchor="start" x="91" y="-677.2" font-family="Helvetica,sans-Serif" font-size="11.00">updated_at</text>
<text text-anchor="start" x="186" y="-677.5" font-family="Helvetica,sans-Serif" font-size="10.00" fill="#666666">TIMESTAMP</text>
<path fill="none" stroke="black" d="M95.5,-667C95.5,-667 254.5,-667 254.5,-667 260.5,-667 266.5,-673 266.5,-679 266.5,-679 266.5,-827 266.5,-827 266.5,-833 260.5,-839 254.5,-839 254.5,-839 95.5,-839 95.5,-839 89.5,-839 83.5,-833 83.5,-827 83.5,-827 83.5,-679 83.5,-679 83.5,-673 89.5,-667 95.5,-667"/>
</g>
<!-- posts -->
<g id="node2" class="node">
<title>posts</title>
<path fill="#e8eaf6" stroke="transparent" d="M510,-631C510,-631 654,-631 654,-631 660,-631 666,-637 666,-643 666,-643 666,-863 666,-863 666,-869 660,-875 654,-875 654,-875 510,-875 510,-875 504,-875 498,-869 498,-863 498,-863 498,-643 498,-643 498,-637 504,-631 510,-631"/>
<polygon fill="#3f51b5" stroke="transparent" points="499,-848 499,-874 665,-874 665,-848 499,-848"/>
<text text-anchor="start" x="559" y="-858.6" font-family="Helvetica,sans-Serif" font-weight="bold" font-size="13.00" fill="white">POSTS</text>
<polygon fill="#e3f2fd" stroke="transparent" points="499,-824 499,-848 579,-848 579,-824 499,-824"/>
<text text-anchor="start" x="505" y="-833.2" font-family="Helvetica,sans-Serif" font-size="11.00">ğ™‹ğ™† id</text>
<polygon fill="#e3f2fd" stroke="transparent" points="579,-824 579,-848 665,-848 665,-824 579,-824"/>
<text text-anchor="start" x="585" y="-833.5" font-family="Helvetica,sans-Serif" font-size="10.00" fill="#666666">UUID</text>
<text text-anchor="start" x="505" y="-809.2" font-family="Helvetica,sans-Serif" font-size="11.00">title</text>
<text text-anchor="start" x="585" y="-809.5" font-family="Helvetica,sans-Serif" font-size="10.00" fill="#666666">VARCHAR(255)</text>
<text text-anchor="start" x="505" y="-785.2" font-family="Helvetica,sans-Serif" font-size="11.00">slug</text>
<text text-anchor="start" x="585" y="-785.5" font-family="Helvetica,sans-Serif" font-size="10.00" fill="#666666">VARCHAR(255)</text>
<text text-anchor="start" x="505" y="-761.2" font-family="Helvetica,sans-Serif" font-size="11.00">content</text>
<text text-anchor="start" x="585" y="-761.5" font-family="Helvetica,sans-Serif" font-size="10.00" fill="#666666">TEXT</text>
<polygon fill="#ffe0b2" stroke="transparent" points="499,-728 499,-752 579,-752 579,-728 499,-728"/>
<text text-anchor="start" x="505" y="-737.2" font-family="Helvetica,sans-Serif" font-size="11.00">ğ™ğ™† author_id</text>
<polygon fill="#ffe0b2" stroke="transparent" points="579,-728 579,-752 665,-752 665,-728 579,-728"/>
<text text-anchor="start" x="585" y="-737.5" font-family="Helvetica,sans-Serif" font-size="10.00" fill="#666666">UUID</text>
<text text-anchor="start" x="505" y="-713.2" font-family="Helvetica,sans-Serif" font-size="11.00">status</text>
<text text-anchor="start" x="585" y="-713.5" font-family="Helvetica,sans-Serif" font-size="10.00" fill="#666666">ENUM</text>
<text text-anchor="start" x="505" y="-689.2" font-family="Helvetica,sans-Serif" font-size="11.00">published_at</text>
<text text-anchor="start" x="585" y="-689.5" font-family="Helvetica,sans-Serif" font-size="10.00" fill="#666666">TIMESTAMP</text>
<text text-anchor="start" x="505" y="-665.2" font-family="Helvetica,sans-Serif" font-size="11.00">created_at</text>
<text text-anchor="start" x="585" y="-665.5" font-family="Helvetica,sans-Serif" font-size="10.00" fill="#666666">TIMESTAMP</text>
<text text-anchor="start" x="505" y="-641.2" font-family="Helvetica,sans-Serif" font-size="11.00">updated_at</text>
<text text-anchor="start" x="585" y="-641.5" font-family="Helvetica,sans-Serif" font-size="10.00" fill="#666666">TIMESTAMP</text>
<path fill="none" stroke="black" d="M510,-631C510,-631 654,-631 654,-631 660,-631 666,-637 666,-643 666,-643 666,-863 666,-863 666,-869 660,-875 654,-875 654,-875 510,-875 510,-875 504,-875 498,-869 498,-863 498,-863 498,-643 498,-643 498,-637 504,-631 510,-631"/>
</g>
<!-- users&#45;&gt;posts -->
<g id="edge2" class="edge">
<title>users:e&#45;&gt;posts:w</title>
<path fill="none" stroke="#0288d1" stroke-width="2" d="M274.5,-753C320.48,-753 317.38,-796.03 361.5,-809 379.84,-814.39 386.19,-814.46 404.5,-809 448.03,-796.01 444.57,-753 490,-753"/>
<text text-anchor="middle" x="383" y="-828.2" font-family="Helvetica,sans-Serif" font-size="11.00" fill="#0288d1">1:N </text>
<text text-anchor="middle" x="383" y="-816.2" font-family="Helvetica,sans-Serif" font-size="11.00" fill="#0288d1">(author)</text>
</g>
<!-- comments -->
<g id="node3" class="node">
<title>comments</title>
<path fill="#e8eaf6" stroke="transparent" d="M910,-655C910,-655 1038,-655 1038,-655 1044,-655 1050,-661 1050,-667 1050,-667 1050,-839 1050,-839 1050,-845 1044,-851 1038,-851 1038,-851 910,-851 910,-851 904,-851 898,-845 898,-839 898,-839 898,-667 898,-667 898,-661 904,-655 910,-655"/>
<polygon fill="#3f51b5" stroke="transparent" points="899,-824 899,-850 1049,-850 1049,-824 899,-824"/>
<text text-anchor="start" x="935.5" y="-834.6" font-family="Helvetica,sans-Serif" font-weight="bold" font-size="13.00" fill="white">COMMENTS</text>
<polygon fill="#e3f2fd" stroke="transparent" points="899,-800 899,-824 977,-824 977,-800 899,-800"/>
<text text-anchor="start" x="905" y="-809.2" font-family="Helvetica,sans-Serif" font-size="11.00">ğ™‹ğ™† id</text>
<polygon fill="#e3f2fd" stroke="transparent" points="977,-800 977,-824 1049,-824 1049,-800 977,-800"/>
<text text-anchor="start" x="983" y="-809.5" font-family="Helvetica,sans-Serif" font-size="10.00" fill="#666666">UUID</text>
<polygon fill="#ffe0b2" stroke="transparent" points="899,-776 899,-800 977,-800 977,-776 899,-776"/>
<text text-anchor="start" x="905" y="-785.2" font-family="Helvetica,sans-Serif" font-size="11.00">ğ™ğ™† post_id</text>
<polygon fill="#ffe0b2" stroke="transparent" points="977,-776 977,-800 1049,-800 1049,-776 977,-776"/>
<text text-anchor="start" x="983" y="-785.5" font-family="Helvetica,sans-Serif" font-size="10.00" fill="#666666">UUID</text>
<polygon fill="#ffe0b2" stroke="transparent" points="899,-752 899,-776 977,-776 977,-752 899,-752"/>
<text text-anchor="start" x="905" y="-761.2" font-family="Helvetica,sans-Serif" font-size="11.00">ğ™ğ™† user_id</text>
<polygon fill="#ffe0b2" stroke="transparent" points="977,-752 977,-776 1049,-776 1049,-752 977,-752"/>
<text text-anchor="start" x="983" y="-761.5" font-family="Helvetica,sans-Serif" font-size="10.00" fill="#666666">UUID</text>
<polygon fill="#ffe0b2" stroke="transparent" points="899,-728 899,-752 977,-752 977,-728 899,-728"/>
<text text-anchor="start" x="905" y="-737.2" font-family="Helvetica,sans-Serif" font-size="11.00">ğ™ğ™† parent_id</text>
<polygon fill="#ffe0b2" stroke="transparent" points="977,-728 977,-752 1049,-752 1049,-728 977,-728"/>
<text text-anchor="start" x="983" y="-737.5" font-family="Helvetica,sans-Serif" font-size="10.00" fill="#666666">UUID</text>
<text text-anchor="start" x="905" y="-713.2" font-family="Helvetica,sans-Serif" font-size="11.00">content</text>
<text text-anchor="start" x="983" y="-713.5" font-family="Helvetica,sans-Serif" font-size="10.00" fill="#666666">TEXT</text>
<text text-anchor="start" x="905" y="-689.2" font-family="Helvetica,sans-Serif" font-size="11.00">approved</text>
<text text-anchor="start" x="983" y="-689.5" font-family="Helvetica,sans-Serif" font-size="10.00" fill="#666666">BOOLEAN</text>
<text text-anchor="start" x="905" y="-665.2" font-family="Helvetica,sans-Serif" font-size="11.00">created_at</text>
<text text-anchor="start" x="983" y="-665.5" font-family="Helvetica,sans-Serif" font-size="10.00" fill="#666666">TIMESTAMP</text>
<path fill="none" stroke="black" d="M910,-655C910,-655 1038,-655 1038,-655 1044,-655 1050,-661 1050,-667 1050,-667 1050,-839 1050,-839 1050,-845 1044,-851 1038,-851 1038,-851 910,-851 910,-851 904,-851 898,-845 898,-839 898,-839 898,-667 898,-667 898,-661 904,-655 910,-655"/>
</g>
<!-- users&#45;&gt;comments -->
<g id="edge4" class="edge">
<title>users:ne&#45;&gt;comments:nw</title>
<path fill="none" stroke="#0288d1" stroke-width="2" d="M265,-844C459.03,-1038.03 687.91,-1034.54 882.79,-845.11"/>
<polygon fill="#0288d1" stroke="#0288d1" stroke-width="2" points="882.88,-845.02 893.16,-841.2 886.44,-841.51 890,-838 890,-838 890,-838 886.44,-841.51 886.84,-834.8 882.88,-845.02 882.88,-845.02"/>
<text text-anchor="middle" x="582" y="-984.2" font-family="Helvetica,sans-Serif" font-size="11.00" fill="#0288d1">1:N </text>
<text text-anchor="middle" x="582" y="-972.2" font-family="Helvetica,sans-Serif" font-size="11.00" fill="#0288d1">(author)</text>
</g>
<!-- user_role_assignments -->
<g id="node6" class="node">
<title>user_role_assignments</title>
<path fill="#fff3e0" stroke="transparent" d="M319.5,-366C319.5,-366 496.5,-366 496.5,-366 502.5,-366 508.5,-372 508.5,-378 508.5,-378 508.5,-430 508.5,-430 508.5,-436 502.5,-442 496.5,-442 496.5,-442 319.5,-442 319.5,-442 313.5,-442 307.5,-436 307.5,-430 307.5,-430 307.5,-378 307.5,-378 307.5,-372 313.5,-366 319.5,-366"/>
<polygon fill="#ff9800" stroke="transparent" points="309,-415 309,-441 508,-441 508,-415 309,-415"/>
<text text-anchor="start" x="315" y="-425.6" font-family="Helvetica,sans-Serif" font-weight="bold" font-size="13.00" fill="white">USER_ROLE_ASSIGNMENTS</text>
<polygon fill="#fff9c4" stroke="transparent" points="309,-391 309,-415 431,-415 431,-391 309,-391"/>
<text text-anchor="start" x="315" y="-400.2" font-family="Helvetica,sans-Serif" font-size="11.00">ğ™ğ™† ğ™‹ğ™† user_id</text>
<polygon fill="#fff9c4" stroke="transparent" points="431,-391 431,-415 508,-415 508,-391 431,-391"/>
<text text-anchor="start" x="437" y="-400.5" font-family="Helvetica,sans-Serif" font-size="10.00" fill="#666666">UUID</text>
<polygon fill="#fff9c4" stroke="transparent" points="309,-367 309,-391 431,-391 431,-367 309,-367"/>
<text text-anchor="start" x="315" y="-376.2" font-family="Helvetica,sans-Serif" font-size="11.00">ğ™ğ™† ğ™‹ğ™† role_id</text>
<polygon fill="#fff9c4" stroke="transparent" points="431,-367 431,-391 508,-391 508,-367 431,-367"/>
<text text-anchor="start" x="437" y="-376.5" font-family="Helvetica,sans-Serif" font-size="10.00" fill="#666666">UUID</text>
<path fill="none" stroke="black" d="M319.5,-366C319.5,-366 496.5,-366 496.5,-366 502.5,-366 508.5,-372 508.5,-378 508.5,-378 508.5,-430 508.5,-430 508.5,-436 502.5,-442 496.5,-442 496.5,-442 319.5,-442 319.5,-442 313.5,-442 307.5,-436 307.5,-430 307.5,-430 307.5,-378 307.5,-378 307.5,-372 313.5,-366 319.5,-366"/>
</g>
<!-- users&#45;&gt;user_role_assignments -->
<g id="edge9" class="edge">
<title>users:sw&#45;&gt;user_role_assignments:n</title>
<path fill="none" stroke="#f57c00" stroke-width="1.8" stroke-dasharray="5,2" d="M85,-662C-34.44,-542.56 389.99,-616.28 407.45,-457.3"/>
<polygon fill="#f57c00" stroke="#f57c00" stroke-width="1.8" points="407.46,-456.99 412.49,-447.24 407.73,-451.99 408,-447 408,-447 408,-447 407.73,-451.99 403.51,-446.76 407.46,-456.99 407.46,-456.99"/>
</g>
<!-- user_profiles -->
<g id="node9" class="node">
<title>user_profiles</title>
<path fill="#f3e5f5" stroke="transparent" d="M58,-42C58,-42 206,-42 206,-42 212,-42 218,-48 218,-54 218,-54 218,-154 218,-154 218,-160 212,-166 206,-166 206,-166 58,-166 58,-166 52,-166 46,-160 46,-154 46,-154 46,-54 46,-54 46,-48 52,-42 58,-42"/>
<polygon fill="#9c27b0" stroke="transparent" points="47,-139 47,-165 217,-165 217,-139 47,-139"/>
<text text-anchor="start" x="76" y="-149.6" font-family="Helvetica,sans-Serif" font-weight="bold" font-size="13.00" fill="white">USER_PROFILES</text>
<polygon fill="#fff9c4" stroke="transparent" points="47,-115 47,-139 131,-139 131,-115 47,-115"/>
<text text-anchor="start" x="53" y="-124.2" font-family="Helvetica,sans-Serif" font-size="11.00">ğ™ğ™† ğ™‹ğ™† user_id</text>
<polygon fill="#fff9c4" stroke="transparent" points="131,-115 131,-139 217,-139 217,-115 131,-115"/>
<text text-anchor="start" x="137" y="-124.5" font-family="Helvetica,sans-Serif" font-size="10.00" fill="#666666">UUID</text>
<text text-anchor="start" x="53" y="-100.2" font-family="Helvetica,sans-Serif" font-size="11.00">bio</text>
<text text-anchor="start" x="137" y="-100.5" font-family="Helvetica,sans-Serif" font-size="10.00" fill="#666666">TEXT</text>
<text text-anchor="start" x="53" y="-76.2" font-family="Helvetica,sans-Serif" font-size="11.00">avatar_url</text>
<text text-anchor="start" x="137" y="-76.5" font-family="Helvetica,sans-Serif" font-size="10.00" fill="#666666">VARCHAR(255)</text>
<text text-anchor="start" x="53" y="-52.2" font-family="Helvetica,sans-Serif" font-size="11.00">website</text>
<text text-anchor="start" x="137" y="-52.5" font-family="Helvetica,sans-Serif" font-size="10.00" fill="#666666">VARCHAR(255)</text>
<path fill="none" stroke="black" d="M58,-42C58,-42 206,-42 206,-42 212,-42 218,-48 218,-54 218,-54 218,-154 218,-154 218,-160 212,-166 206,-166 206,-166 58,-166 58,-166 52,-166 46,-160 46,-154 46,-154 46,-54 46,-54 46,-48 52,-42 58,-42"/>
</g>
<!-- users&#45;&gt;user_profiles -->
<g id="edge1" class="edge">
<title>users:s&#45;&gt;user_profiles:n</title>
<path fill="none" stroke="#1976d2" stroke-width="2.5" d="M175,-662C175,-442.94 132,-390.06 132,-171"/>
<text text-anchor="middle" x="176" y="-401.2" font-family="Helvetica,sans-Serif" font-size="11.00" fill="#1976d2">1:1</text>
</g>
<!-- users&#45;&gt;user_profiles -->
<!-- posts&#45;&gt;comments -->
<g id="edge3" class="edge">
<title>posts:e&#45;&gt;comments:w</title>
<path fill="none" stroke="#0288d1" stroke-width="2" d="M674,-753C731.85,-753 735.57,-823.79 791.5,-809 840.19,-796.13 839.64,-753 890,-753"/>
<text text-anchor="middle" x="782" y="-814.2" font-family="Helvetica,sans-Serif" font-size="11.00" fill="#0288d1">1:N</text>
</g>
<!-- post_categories -->
<g id="node4" class="node">
<title>post_categories</title>
<path fill="#fff3e0" stroke="transparent" d="M645,-366C645,-366 767,-366 767,-366 773,-366 779,-372 779,-378 779,-378 779,-430 779,-430 779,-436 773,-442 767,-442 767,-442 645,-442 645,-442 639,-442 633,-436 633,-430 633,-430 633,-378 633,-378 633,-372 639,-366 645,-366"/>
<polygon fill="#ff9800" stroke="transparent" points="634,-415 634,-441 778,-441 778,-415 634,-415"/>
<text text-anchor="start" x="640" y="-425.6" font-family="Helvetica,sans-Serif" font-weight="bold" font-size="13.00" fill="white">POST_CATEGORIES</text>
<polygon fill="#fff9c4" stroke="transparent" points="634,-391 634,-415 740,-415 740,-391 634,-391"/>
<text text-anchor="start" x="640" y="-400.2" font-family="Helvetica,sans-Serif" font-size="11.00">ğ™ğ™† ğ™‹ğ™† post_id</text>
<polygon fill="#fff9c4" stroke="transparent" points="740,-391 740,-415 778,-415 778,-391 740,-391"/>
<text text-anchor="start" x="746" y="-400.5" font-family="Helvetica,sans-Serif" font-size="10.00" fill="#666666">UUID</text>
<polygon fill="#fff9c4" stroke="transparent" points="634,-367 634,-391 740,-391 740,-367 634,-367"/>
<text text-anchor="start" x="640" y="-376.2" font-family="Helvetica,sans-Serif" font-size="11.00">ğ™ğ™† ğ™‹ğ™† category_id</text>
<polygon fill="#fff9c4" stroke="transparent" points="740,-367 740,-391 778,-391 778,-367 740,-367"/>
<text text-anchor="start" x="746" y="-376.5" font-family="Helvetica,sans-Serif" font-size="10.00" fill="#666666">UUID</text>
<path fill="none" stroke="black" d="M645,-366C645,-366 767,-366 767,-366 773,-366 779,-372 779,-378 779,-378 779,-430 779,-430 779,-436 773,-442 767,-442 767,-442 645,-442 645,-442 639,-442 633,-436 633,-430 633,-430 633,-378 633,-378 633,-372 639,-366 645,-366"/>
</g>
<!-- posts&#45;&gt;post_categories -->
<g id="edge5" class="edge">
<title>posts:s&#45;&gt;post_categories:n</title>
<path fill="none" stroke="#f57c00" stroke-width="1.8" stroke-dasharray="5,2" d="M582,-626C582,-532.72 697.2,-542.87 705.53,-457.07"/>
<polygon fill="#f57c00" stroke="#f57c00" stroke-width="1.8" points="705.53,-456.99 710.5,-447.21 705.76,-451.99 706,-447 706,-447 706,-447 705.76,-451.99 701.5,-446.79 705.53,-456.99 705.53,-456.99"/>
</g>
<!-- posts&#45;&gt;post_categories -->
<!-- post_tags -->
<g id="node5" class="node">
<title>post_tags</title>
<path fill="#fff3e0" stroke="transparent" d="M915,-366C915,-366 1015,-366 1015,-366 1021,-366 1027,-372 1027,-378 1027,-378 1027,-430 1027,-430 1027,-436 1021,-442 1015,-442 1015,-442 915,-442 915,-442 909,-442 903,-436 903,-430 903,-430 903,-378 903,-378 903,-372 909,-366 915,-366"/>
<polygon fill="#ff9800" stroke="transparent" points="904,-415 904,-441 1026,-441 1026,-415 904,-415"/>
<text text-anchor="start" x="924.5" y="-425.6" font-family="Helvetica,sans-Serif" font-weight="bold" font-size="13.00" fill="white">POST_TAGS</text>
<polygon fill="#fff9c4" stroke="transparent" points="904,-391 904,-415 988,-415 988,-391 904,-391"/>
<text text-anchor="start" x="910" y="-400.2" font-family="Helvetica,sans-Serif" font-size="11.00">ğ™ğ™† ğ™‹ğ™† post_id</text>
<polygon fill="#fff9c4" stroke="transparent" points="988,-391 988,-415 1026,-415 1026,-391 988,-391"/>
<text text-anchor="start" x="994" y="-400.5" font-family="Helvetica,sans-Serif" font-size="10.00" fill="#666666">UUID</text>
<polygon fill="#fff9c4" stroke="transparent" points="904,-367 904,-391 988,-391 988,-367 904,-367"/>
<text text-anchor="start" x="910" y="-376.2" font-family="Helvetica,sans-Serif" font-size="11.00">ğ™ğ™† ğ™‹ğ™† tag_id</text>
<polygon fill="#fff9c4" stroke="transparent" points="988,-367 988,-391 1026,-391 1026,-367 988,-367"/>
<text text-anchor="start" x="994" y="-376.5" font-family="Helvetica,sans-Serif" font-size="10.00" fill="#666666">UUID</text>
<path fill="none" stroke="black" d="M915,-366C915,-366 1015,-366 1015,-366 1021,-366 1027,-372 1027,-378 1027,-378 1027,-430 1027,-430 1027,-436 1021,-442 1015,-442 1015,-442 915,-442 915,-442 909,-442 903,-436 903,-430 903,-430 903,-378 903,-378 903,-372 909,-366 915,-366"/>
</g>
<!-- posts&#45;&gt;post_tags -->
<g id="edge7" class="edge">
<title>posts:se&#45;&gt;post_tags:n</title>
<path fill="none" stroke="#f57c00" stroke-width="1.8" stroke-dasharray="5,2" d="M674,-660C784.9,-549.1 957.4,-604.75 964.76,-457.03"/>
<polygon fill="#f57c00" stroke="#f57c00" stroke-width="1.8" points="964.76,-457 969.5,-447.11 964.88,-452 965,-447 965,-447 965,-447 964.88,-452 960.5,-446.89 964.76,-457 964.76,-457"/>
</g>
<!-- comments&#45;&gt;post_tags -->
<!-- categories -->
<g id="node7" class="node">
<title>categories</title>
<path fill="#e8f5e9" stroke="transparent" d="M638,-42C638,-42 774,-42 774,-42 780,-42 786,-48 786,-54 786,-54 786,-154 786,-154 786,-160 780,-166 774,-166 774,-166 638,-166 638,-166 632,-166 626,-160 626,-154 626,-154 626,-54 626,-54 626,-48 632,-42 638,-42"/>
<polygon fill="#4caf50" stroke="transparent" points="627,-139 627,-165 785,-165 785,-139 627,-139"/>
<text text-anchor="start" x="662" y="-149.6" font-family="Helvetica,sans-Serif" font-weight="bold" font-size="13.00" fill="white">CATEGORIES</text>
<polygon fill="#e3f2fd" stroke="transparent" points="627,-115 627,-139 699,-139 699,-115 627,-115"/>
<text text-anchor="start" x="633" y="-124.2" font-family="Helvetica,sans-Serif" font-size="11.00">ğ™‹ğ™† id</text>
<polygon fill="#e3f2fd" stroke="transparent" points="699,-115 699,-139 785,-139 785,-115 699,-115"/>
<text text-anchor="start" x="705" y="-124.5" font-family="Helvetica,sans-Serif" font-size="10.00" fill="#666666">UUID</text>
<text text-anchor="start" x="633" y="-100.2" font-family="Helvetica,sans-Serif" font-size="11.00">name</text>
<text text-anchor="start" x="705" y="-100.5" font-family="Helvetica,sans-Serif" font-size="10.00" fill="#666666">VARCHAR(100)</text>
<text text-anchor="start" x="633" y="-76.2" font-family="Helvetica,sans-Serif" font-size="11.00">slug</text>
<text text-anchor="start" x="705" y="-76.5" font-family="Helvetica,sans-Serif" font-size="10.00" fill="#666666">VARCHAR(100)</text>
<text text-anchor="start" x="633" y="-52.2" font-family="Helvetica,sans-Serif" font-size="11.00">description</text>
<text text-anchor="start" x="705" y="-52.5" font-family="Helvetica,sans-Serif" font-size="10.00" fill="#666666">TEXT</text>
<path fill="none" stroke="black" d="M638,-42C638,-42 774,-42 774,-42 780,-42 786,-48 786,-54 786,-54 786,-154 786,-154 786,-160 780,-166 774,-166 774,-166 638,-166 638,-166 632,-166 626,-160 626,-154 626,-154 626,-54 626,-54 626,-48 632,-42 638,-42"/>
</g>
<!-- post_categories&#45;&gt;categories -->
<g id="edge6" class="edge">
<title>post_categories:s&#45;&gt;categories:n</title>
<path fill="none" stroke="#f57c00" stroke-width="1.8" stroke-dasharray="5,2" d="M706,-361C706,-280.02 706,-257.28 706,-181.08"/>
<polygon fill="#f57c00" stroke="#f57c00" stroke-width="1.8" points="706,-181 710.5,-171 706,-176 706,-171 706,-171 706,-171 706,-176 701.5,-171 706,-181 706,-181"/>
<text text-anchor="middle" x="717" y="-263.2" font-family="Helvetica,sans-Serif" font-size="11.00" fill="#f57c00">M:N</text>
</g>
<!-- tags -->
<g id="node8" class="node">
<title>tags</title>
<path fill="#e8f5e9" stroke="transparent" d="M922,-54C922,-54 1022,-54 1022,-54 1028,-54 1034,-60 1034,-66 1034,-66 1034,-142 1034,-142 1034,-148 1028,-154 1022,-154 1022,-154 922,-154 922,-154 916,-154 910,-148 910,-142 910,-142 910,-66 910,-66 910,-60 916,-54 922,-54"/>
<polygon fill="#4caf50" stroke="transparent" points="911,-127 911,-153 1033,-153 1033,-127 911,-127"/>
<text text-anchor="start" x="953.5" y="-137.6" font-family="Helvetica,sans-Serif" font-weight="bold" font-size="13.00" fill="white">TAGS</text>
<polygon fill="#e3f2fd" stroke="transparent" points="911,-103 911,-127 952,-127 952,-103 911,-103"/>
<text text-anchor="start" x="917" y="-112.2" font-family="Helvetica,sans-Serif" font-size="11.00">ğ™‹ğ™† id</text>
<polygon fill="#e3f2fd" stroke="transparent" points="952,-103 952,-127 1033,-127 1033,-103 952,-103"/>
<text text-anchor="start" x="958" y="-112.5" font-family="Helvetica,sans-Serif" font-size="10.00" fill="#666666">UUID</text>
<text text-anchor="start" x="917" y="-88.2" font-family="Helvetica,sans-Serif" font-size="11.00">name</text>
<text text-anchor="start" x="958" y="-88.5" font-family="Helvetica,sans-Serif" font-size="10.00" fill="#666666">VARCHAR(50)</text>
<text text-anchor="start" x="917" y="-64.2" font-family="Helvetica,sans-Serif" font-size="11.00">slug</text>
<text text-anchor="start" x="958" y="-64.5" font-family="Helvetica,sans-Serif" font-size="10.00" fill="#666666">VARCHAR(50)</text>
<path fill="none" stroke="black" d="M922,-54C922,-54 1022,-54 1022,-54 1028,-54 1034,-60 1034,-66 1034,-66 1034,-142 1034,-142 1034,-148 1028,-154 1022,-154 1022,-154 922,-154 922,-154 916,-154 910,-148 910,-142 910,-142 910,-66 910,-66 910,-60 916,-54 922,-54"/>
</g>
<!-- post_tags&#45;&gt;tags -->
<g id="edge8" class="edge">
<title>post_tags:s&#45;&gt;tags:n</title>
<path fill="none" stroke="#f57c00" stroke-width="1.8" stroke-dasharray="5,2" d="M965,-361C965,-274.68 971.46,-250.68 971.97,-169.23"/>
<polygon fill="#f57c00" stroke="#f57c00" stroke-width="1.8" points="971.97,-169 976.5,-159.01 971.98,-164 972,-159 972,-159 972,-159 971.98,-164 967.5,-158.99 971.97,-169 971.97,-169"/>
<text text-anchor="middle" x="979" y="-263.2" font-family="Helvetica,sans-Serif" font-size="11.00" fill="#f57c00">M:N</text>
</g>
<!-- user_roles -->
<g id="node10" class="node">
<title>user_roles</title>
<path fill="#f3e5f5" stroke="transparent" d="M354,-54C354,-54 490,-54 490,-54 496,-54 502,-60 502,-66 502,-66 502,-142 502,-142 502,-148 496,-154 490,-154 490,-154 354,-154 354,-154 348,-154 342,-148 342,-142 342,-142 342,-66 342,-66 342,-60 348,-54 354,-54"/>
<polygon fill="#9c27b0" stroke="transparent" points="343,-127 343,-153 501,-153 501,-127 343,-127"/>
<text text-anchor="start" x="376.5" y="-137.6" font-family="Helvetica,sans-Serif" font-weight="bold" font-size="13.00" fill="white">USER_ROLES</text>
<polygon fill="#e3f2fd" stroke="transparent" points="343,-103 343,-127 420,-127 420,-103 343,-103"/>
<text text-anchor="start" x="349" y="-112.2" font-family="Helvetica,sans-Serif" font-size="11.00">ğ™‹ğ™† id</text>
<polygon fill="#e3f2fd" stroke="transparent" points="420,-103 420,-127 501,-127 501,-103 420,-103"/>
<text text-anchor="start" x="426" y="-112.5" font-family="Helvetica,sans-Serif" font-size="10.00" fill="#666666">UUID</text>
<text text-anchor="start" x="349" y="-88.2" font-family="Helvetica,sans-Serif" font-size="11.00">name</text>
<text text-anchor="start" x="426" y="-88.5" font-family="Helvetica,sans-Serif" font-size="10.00" fill="#666666">VARCHAR(50)</text>
<text text-anchor="start" x="349" y="-64.2" font-family="Helvetica,sans-Serif" font-size="11.00">permissions</text>
<text text-anchor="start" x="426" y="-64.5" font-family="Helvetica,sans-Serif" font-size="10.00" fill="#666666">JSONB</text>
<path fill="none" stroke="black" d="M354,-54C354,-54 490,-54 490,-54 496,-54 502,-60 502,-66 502,-66 502,-142 502,-142 502,-148 496,-154 490,-154 490,-154 354,-154 354,-154 348,-154 342,-148 342,-142 342,-142 342,-66 342,-66 342,-60 348,-54 354,-54"/>
</g>
<!-- user_role_assignments&#45;&gt;user_roles -->
<g id="edge10" class="edge">
<title>user_role_assignments:s&#45;&gt;user_roles:n</title>
<path fill="none" stroke="#f57c00" stroke-width="1.8" stroke-dasharray="5,2" d="M408,-361C408,-274.52 420.93,-250.82 421.94,-169.24"/>
<polygon fill="#f57c00" stroke="#f57c00" stroke-width="1.8" points="421.94,-169 426.5,-159.03 421.97,-164 422,-159 422,-159 422,-159 421.97,-164 417.5,-158.97 421.94,-169 421.94,-169"/>
<text text-anchor="middle" x="426" y="-263.2" font-family="Helvetica,sans-Serif" font-size="11.00" fill="#f57c00">M:N</text>
</g>
</g>
</svg>
