<svg width="1118pt" height="785pt" viewBox="0 0 1118.37 784.92" xmlns="http://www.w3.org/2000/svg"><g class="graph" transform="translate(4 780.92)"><path fill="#fff" stroke="transparent" d="M-4 4v-784.92h1118.37V4H-4z"/><g class="node"><ellipse fill="none" stroke="#000" cx="392.34" cy="-18" rx="113.98" ry="18"/><text text-anchor="middle" x="392.34" y="-14.3" font-family="Times,serif" font-size="14">@ts-graphviz/dot-type</text></g><g class="node"><ellipse fill="none" stroke="#000" cx="134.54" cy="-553.33" rx="134.58" ry="18"/><text text-anchor="middle" x="134.54" y="-549.63" font-family="Times,serif" font-size="14">@ts-graphviz/dot-attribute</text></g><g class="edge"><path fill="none" stroke="#000" d="M379.15-45.39c-45.88-95.27-197.79-410.72-235.89-489.83"/><path stroke="#000" d="m382.43-46.65 1.18 10.53-7.49-7.49 6.31-3.04z"/></g><g class="node"><ellipse fill="none" stroke="#000" cx="392.34" cy="-758.92" rx="107.48" ry="18"/><text text-anchor="middle" x="392.34" y="-755.22" font-family="Times,serif" font-size="14">@ts-graphviz/dot-ast</text></g><g class="edge"><path fill="none" stroke="#000" d="M392.34-46.32v-694.6"/><path stroke="#000" d="m395.84-46.31-3.5 9.99-3.5-10 7 .01z"/></g><g class="node"><ellipse fill="none" stroke="#000" cx="134.54" cy="-223.59" rx="116.18" ry="18"/><text text-anchor="middle" x="134.54" y="-219.89" font-family="Times,serif" font-size="14">@ts-graphviz/renderer</text></g><g class="edge"><path fill="none" stroke="#000" d="M361.97-42.22c-52.51-41.87-159.05-126.84-205.24-163.67"/><path stroke="#000" d="m364.28-44.86 5.63 8.97-10-3.49 4.37-5.48z"/></g><g class="node"><ellipse fill="none" stroke="#000" cx="856.88" cy="-388.46" rx="63.09" ry="18"/><text text-anchor="middle" x="856.88" y="-384.76" font-family="Times,serif" font-size="14">ts-graphviz</text></g><g class="edge"><path fill="none" stroke="#000" d="M422.68-42.19c87.35-69.66 337.95-269.51 412.83-329.22"/><path stroke="#000" d="m424.75-39.37-10 3.5 5.63-8.97 4.37 5.47z"/></g><g class="edge"><path fill="none" stroke="#000" d="M164.91-577.55c52.51-41.87 159.05-126.84 205.24-163.67"/><path stroke="#000" d="m166.97-574.71-10 3.49 5.63-8.97 4.37 5.48z"/></g><g class="edge"><path fill="none" stroke="#000" d="M134.54-525.04v283.31"/><path stroke="#000" d="m131.04-525.13 3.5-10 3.5 10h-7z"/></g><g class="node"><ellipse fill="none" stroke="#000" cx="713.81" cy="-685.55" rx="103.18" ry="18"/><text text-anchor="middle" x="713.81" y="-681.85" font-family="Times,serif" font-size="14">@ts-graphviz/model</text></g><g class="edge"><path fill="none" stroke="#000" d="M212.57-571.14c115.98-26.47 331.59-75.68 438.2-100.02"/><path stroke="#000" d="m213.22-567.7-10.53-1.19 8.97-5.63 1.56 6.82z"/></g><g class="edge"><path fill="none" stroke="#000" d="M212.84-535.46c149.42 34.11 471.31 107.57 594.6 135.72"/><path stroke="#000" d="m211.79-532.11-8.97-5.64 10.53-1.18-1.56 6.82z"/></g><g class="edge"><path fill="none" stroke="#000" d="M379.15-731.54c-45.88 95.27-197.79 410.73-235.89 489.84"/><path stroke="#000" d="m376.12-733.31 7.49-7.49-1.18 10.53-6.31-3.04z"/></g><g class="edge"><path fill="none" stroke="#000" d="M466.07-742.09c55.85 12.75 131.77 30.07 184.79 42.17"/><path stroke="#000" d="m465.21-738.7-8.97-5.64 10.53-1.18-1.56 6.82z"/></g><g class="node"><ellipse fill="none" stroke="#000" cx="713.81" cy="-91.37" rx="105.08" ry="18"/><text text-anchor="middle" x="713.81" y="-87.67" font-family="Times,serif" font-size="14">@ts-graphviz/parser</text></g><g class="edge"><path fill="none" stroke="#000" d="M405.56-731.47c53.72 111.56 254.97 529.45 299.5 621.91"/><path stroke="#000" d="m402.29-730.19-1.18-10.53 7.49 7.49-6.31 3.04z"/></g><g class="edge"><path fill="none" stroke="#000" d="M422.33-735c87.01 69.38 338.1 269.62 413.13 329.46"/><path stroke="#000" d="m420.07-732.33-5.64-8.97 10 3.5-4.36 5.47z"/></g><g class="edge"><path fill="none" stroke="#000" d="M209.83-240.78c148.05-33.79 473.41-108.05 597.57-136.39"/><path stroke="#000" d="m210.44-237.33-10.52-1.18 8.97-5.64 1.55 6.82z"/></g><g class="edge"><path fill="none" stroke="#000" d="M726.99-658.18c28.9 60 97.16 201.75 121.27 251.82"/><path stroke="#000" d="m723.73-656.88-1.18-10.53 7.49 7.49-6.31 3.04z"/></g><g class="edge"><path fill="none" stroke="#000" d="M726.99-118.74c28.9-60 97.16-201.75 121.27-251.82"/><path stroke="#000" d="m730.04-117-7.49 7.49 1.18-10.53 6.31 3.04z"/></g><g class="node"><ellipse fill="none" stroke="#000" cx="1011.26" cy="-255.01" rx="97.48" ry="18"/><text text-anchor="middle" x="1011.26" y="-251.31" font-family="Times,serif" font-size="14">@ts-graphviz/node</text></g><g class="edge"><path fill="none" stroke="#000" d="M884.45-364.63c30.41 26.28 78.65 67.99 106.04 91.66"/><path stroke="#000" d="m882.03-362.1-5.28-9.19 9.85 3.89-4.57 5.3z"/></g><g class="node"><ellipse fill="none" stroke="#000" cx="1011.58" cy="-520.65" rx="98.58" ry="18"/><text text-anchor="middle" x="1011.58" y="-516.95" font-family="Times,serif" font-size="14">@ts-graphviz/react</text></g><g class="edge"><path fill="none" stroke="#000" d="M884.84-412.35c30.52-26.08 78.69-67.25 106.01-90.59"/><path stroke="#000" d="m886.98-409.58-9.87 3.84 5.32-9.16 4.55 5.32z"/></g></g></svg>