<svg width="626pt" height="656" viewBox="0 0 626.35 492" xmlns="http://www.w3.org/2000/svg"><g class="graph" transform="translate(4 488)"><path fill="#fff" stroke="transparent" d="M-4 4v-492h626.35V4H-4z"/><g class="cluster"><path fill="none" stroke="#000" d="M215.99-257v-219h244v219h-244z"/><text text-anchor="middle" x="263.49" y="-460.8" font-family="Times,serif" font-size="14">Knowledge</text></g><g class="cluster"><path fill="none" stroke="#000" d="M38.99-174v-75h553v75h-553z"/><text text-anchor="middle" x="69.49" y="-233.8" font-family="Times,serif" font-size="14">Model</text></g><g class="cluster"><path fill="none" stroke="#000" d="M160.99-91v-75h112v75h-112z"/><text text-anchor="middle" x="201.49" y="-150.8" font-family="Times,serif" font-size="14">Interface</text></g><g class="cluster"><path fill="none" stroke="#000" d="M130.99-8v-75h336v75h-336z"/><text text-anchor="middle" x="167.99" y="-67.8" font-family="Times,serif" font-size="14">Adapter</text></g><g class="node"><path fill="none" stroke="#000" d="M443.49-445h-175v4h-4v4h4v20h-4v4h4v4h175v-36z"/><path fill="none" stroke="#000" d="M268.49-441h4v4h-4M268.49-417h4v4h-4"/><text text-anchor="middle" x="355.99" y="-423.3" font-family="Times,serif" font-size="14">@ts-graphviz/dot-type</text></g><g class="node"><path fill="none" stroke="#000" d="M451.49-373h-207v4h-4v4h4v20h-4v4h4v4h207v-36z"/><path fill="none" stroke="#000" d="M244.49-369h4v4h-4M244.49-345h4v4h-4"/><text text-anchor="middle" x="347.99" y="-351.3" font-family="Times,serif" font-size="14">@ts-graphviz/dot-attribute</text></g><g class="edge"><path fill="none" stroke="#000" d="M352.86-398.67c-.98 8.62-2.04 17.88-2.92 25.57"/><path stroke="#000" d="m349.4-399.16 4.61-9.54 2.34 10.34-6.95-.8z"/></g><g class="node"><path fill="none" stroke="#000" d="M389.49-301h-165v4h-4v4h4v20h-4v4h4v4h165v-36z"/><path fill="none" stroke="#000" d="M224.49-297h4v4h-4M224.49-273h4v4h-4"/><text text-anchor="middle" x="306.99" y="-279.3" font-family="Times,serif" font-size="14">@ts-graphviz/dot-ast</text></g><g class="edge"><path fill="none" stroke="#000" d="M273.03-404.53c-14.67 7.57-28.09 17.78-37.04 31.53-8.74 13.41-7.17 21.7 0 36 7.65 15.26 22.01 27.25 35.83 35.94"/><path stroke="#000" d="m271.75-407.79 10.54-1.12-7.55 7.44-2.99-6.32z"/></g><g class="node"><path fill="none" stroke="#000" d="M583.49-218h-179v4h-4v4h4v20h-4v4h4v4h179v-36z"/><path fill="none" stroke="#000" d="M404.49-214h4v4h-4M404.49-190h4v4h-4"/><text text-anchor="middle" x="493.99" y="-196.3" font-family="Times,serif" font-size="14">@ts-graphviz/renderer</text></g><g class="edge"><path fill="none" stroke="#000" d="M421.37-404.47c14.99 7.76 29.48 18.04 39.62 31.47 35.53 47.09 36.16 121.58 34.38 154.91"/><path stroke="#000" d="m419.5-401.48-7.49-7.5 10.53 1.19-3.04 6.31z"/></g><g class="node"><path fill="none" stroke="#000" d="M265.49-135h-97v4h-4v4h4v20h-4v4h4v4h97v-36z"/><path fill="none" stroke="#000" d="M168.49-131h4v4h-4M168.49-107h4v4h-4"/><text text-anchor="middle" x="216.99" y="-113.3" font-family="Times,serif" font-size="14">ts-graphviz</text></g><g class="edge"><path fill="none" stroke="#000" d="M421.49-405.32c21 8.27 43.66 19.03 62.5 32.32 82.93 58.5 178.31 122.17 112 199-42.16 48.84-238.07 55.82-330.5 56.33"/><path stroke="#000" d="m420.08-402.11-8.1-6.84 10.6.3-2.5 6.54z"/></g><g class="edge"><path fill="none" stroke="#000" d="M332.64-327.8c-5.23 8.93-10.93 18.67-15.63 26.7"/><path stroke="#000" d="m329.78-329.84 8.07-6.86-2.03 10.4-6.04-3.54z"/></g><g class="node"><path fill="none" stroke="#000" d="M386.49-218h-159v4h-4v4h4v20h-4v4h4v4h159v-36z"/><path fill="none" stroke="#000" d="M227.49-214h4v4h-4M227.49-190h4v4h-4"/><text text-anchor="middle" x="306.99" y="-196.3" font-family="Times,serif" font-size="14">@ts-graphviz/model</text></g><g class="edge"><path fill="none" stroke="#000" d="M378.79-329.79c8.14 8.18 15.85 18 20.2 28.79 7.31 18.14 9.58 26.95 0 44-9.8 17.44-27.49 30.09-44.75 38.9"/><path stroke="#000" d="m376.2-327.43-4.91-9.39 9.69 4.28-4.78 5.11z"/></g><g class="edge"><path fill="none" stroke="#000" d="M380.97-330.89c11.59 8.78 24.37 19.25 35.02 29.89 26.47 26.46 52.18 61.88 66.47 82.69"/><path stroke="#000" d="m378.73-328.19-5.94-8.77 10.11 3.15-4.17 5.62z"/></g><g class="edge"><path fill="none" stroke="#000" d="M243.13-334.88C156.15-316.64 42.43-286.42 14.99-249c-19.71 26.88-20.18 48.47 0 75 18.5 24.33 99.71 40.85 153.36 49.32"/><path stroke="#000" d="m242.56-338.34 10.5 1.4-9.08 5.46-1.42-6.86z"/></g><g class="edge"><path fill="none" stroke="#000" d="M306.99-254.77v36.62"/><path stroke="#000" d="m303.49-254.82 3.5-10 3.5 10h-7z"/></g><g class="node"><path fill="none" stroke="#000" d="M208.99-218h-162v4h-4v4h4v20h-4v4h4v4h162v-36z"/><path fill="none" stroke="#000" d="M46.99-214h4v4h-4M46.99-190h4v4h-4"/><text text-anchor="middle" x="127.99" y="-196.3" font-family="Times,serif" font-size="14">@ts-graphviz/parser</text></g><g class="edge"><path fill="none" stroke="#000" d="M248.65-261.31c-9.98 3.88-20.19 8.06-29.66 12.31-20.7 9.29-43.25 21.18-60.73 30.8"/><path stroke="#000" d="m247.54-264.63 10.59-.3-8.1 6.84-2.49-6.54z"/></g><g class="edge"><path fill="none" stroke="#000" d="M365.21-261.37c10.33 3.93 20.92 8.14 30.78 12.37 22.11 9.49 46.4 21.37 65.27 30.94"/><path stroke="#000" d="m363.97-258.1-8.13-6.79 10.59.24-2.46 6.55z"/></g><g class="edge"><path fill="none" stroke="#000" d="M214.17-276.75C140.15-271.58 46.94-262.5 34.99-249c-22.11 24.95-19.81 48.19 0 75 30.34 41.09 90.35 52.98 133.16 55.95"/><path stroke="#000" d="m214.26-280.26 10.21 2.81-9.74 4.17-.47-6.98z"/></g><g class="edge"><path fill="none" stroke="#000" d="M280.34-175.02c-14.23 12.81-31.41 28.27-44.29 39.87"/><path stroke="#000" d="m278.13-177.73 9.77-4.09-5.09 9.29-4.68-5.2z"/></g><g class="edge"><path fill="none" stroke="#000" d="M154.33-175.02c14.08 12.81 31.07 28.27 43.81 39.87"/><path stroke="#000" d="m151.9-172.5-5.04-9.32 9.75 4.14-4.71 5.18z"/></g><g class="edge"><path fill="none" stroke="#000" d="M425.87-179.08c-49.68 14.53-115.83 33.87-160.26 46.86"/><path stroke="#000" d="m425-182.47 10.58.55-8.61 6.17-1.97-6.72z"/></g><g class="node"><path fill="none" stroke="#000" d="M458.99-52h-150v4h-4v4h4v20h-4v4h4v4h150v-36z"/><path fill="none" stroke="#000" d="M308.99-48h4v4h-4M308.99-24h4v4h-4"/><text text-anchor="middle" x="383.99" y="-30.3" font-family="Times,serif" font-size="14">@ts-graphviz/node</text></g><g class="edge"><path fill="none" stroke="#000" d="M272.66-95.12c9.23 3.82 18.62 7.93 27.33 12.12 19.37 9.33 40.37 21.33 56.52 31"/><path stroke="#000" d="m271.1-91.98-7.95-7 10.58.52-2.63 6.48z"/></g><g class="node"><path fill="none" stroke="#000" d="M290.99-52h-152v4h-4v4h4v20h-4v4h4v4h152v-36z"/><path fill="none" stroke="#000" d="M138.99-48h4v4h-4M138.99-24h4v4h-4"/><text text-anchor="middle" x="214.99" y="-30.3" font-family="Times,serif" font-size="14">@ts-graphviz/react</text></g><g class="edge"><path fill="none" stroke="#000" d="M216.31-88.77c-.29 12.11-.64 25.99-.9 36.62"/><path stroke="#000" d="m212.82-88.91 3.74-9.91 3.25 10.08-6.99-.17z"/></g></g></svg>