<svg width="383pt" height="152pt" viewBox="0 0 382.84 152.44" xmlns="http://www.w3.org/2000/svg"><g class="graph" transform="translate(4 148.44)"><path fill="#fff" stroke="transparent" d="M-4 4v-152.44h382.84V4H-4z"/><g class="node"><circle fill="none" stroke="#000" cx="39.65" cy="-39.65" r="39.79"/><text text-anchor="middle" x="39.65" y="-35.95" font-family="Times,serif" font-size="14">Model</text></g><g class="node"><circle fill="none" stroke="#000" cx="204.65" cy="-39.65" r="29.5"/><text text-anchor="middle" x="204.65" y="-35.95" font-family="Times,serif" font-size="14">AST</text></g><g class="edge"><path fill="none" stroke="#000" d="M79.59-39.65h85.36"/><path stroke="#000" d="m165.16-43.15 10 3.5-10 3.5v-7z"/><text text-anchor="middle" x="127.35" y="-46.45" font-family="Times,serif" font-size="14">fromModel</text></g><g class="node"><circle fill="none" stroke="#000" cx="343.65" cy="-39.65" r="31.4"/><text text-anchor="middle" x="343.65" y="-35.95" font-family="Times,serif" font-size="14">DOT</text></g><g class="edge"><path fill="none" stroke="#000" d="M71.74-62.96c34.78-22.43 92.24-51.3 143.91-39.33 33.48 7.75 68.33 25.54 93.19 40.19"/><path stroke="#000" d="m310.76-65.03 6.76 8.16-10.37-2.16 3.61-6z"/><text text-anchor="middle" x="195.65" y="-101.09" font-family="Times,serif" font-size="14">toDot</text></g><g class="edge"><path fill="none" stroke="#000" d="M234.12-39.65h68.13"/><path stroke="#000" d="m302.28-43.15 10 3.5-10 3.5v-7z"/><text text-anchor="middle" x="273.17" y="-46.45" font-family="Times,serif" font-size="14">stringify</text></g><g class="edge"><path fill="none" stroke="#000" d="M314.74-27.44c-6.94 2.4-14.42 4.56-21.57 5.79-17.52 3.03-22.5 3.14-40 0-3.92-.7-7.93-1.7-11.89-2.87"/><path stroke="#000" d="m240.02-21.25-8.39-6.46 10.59-.18-2.2 6.64z"/><text text-anchor="middle" x="273.17" y="-25.45" font-family="Times,serif" font-size="14">parse</text></g></g></svg>
